<?xml version="1.0" encoding="UTF-8"?>
<svg version="1.1" xmlns="http://www.w3.org/2000/svg" width="512" height="512">
<path d="M0 0 C0.93328125 -0.03738281 1.8665625 -0.07476563 2.828125 -0.11328125 C9.06257084 0.7952142 13.30671771 5.53897305 17.5625 9.875 C18.08312012 10.4009375 18.60374023 10.926875 19.14013672 11.46875 C23.2041817 15.63137022 26.93706838 20.00091231 30.5546875 24.55859375 C32.80924513 27.38681996 35.14876109 30.12684777 37.5 32.875 C82.3357265 86.7887484 108.58506253 155.75117561 114.75 225.3125 C114.91822266 227.10107422 114.91822266 227.10107422 115.08984375 228.92578125 C121.77108565 314.13449641 96.81038812 402.36077598 44.75 470.3125 C44.28706543 470.91964844 43.82413086 471.52679688 43.34716797 472.15234375 C38.0816236 479.03483767 32.67161596 485.69632954 26.80078125 492.078125 C24.88614309 494.16416886 23.03177042 496.28932046 21.1875 498.4375 C9.485048 511.82728228 9.485048 511.82728228 3.1640625 512.6484375 C-2.83584459 512.73246981 -6.58907492 512.50733258 -11.25 508.3125 C-14.79615362 504.27722174 -15.57069284 500.73419726 -15.453125 495.35546875 C-14.8310265 489.09859343 -10.62715062 485.48744007 -6.34765625 481.36328125 C-3.10217603 478.19032573 -0.19410875 474.76299545 2.75 471.3125 C3.93335938 469.96285156 3.93335938 469.96285156 5.140625 468.5859375 C61.16189505 404.23421145 88.5212066 318.63778757 83 233.8125 C79.87725947 191.18192543 68.91576469 149.55209029 49.75 111.3125 C49.33395508 110.47090332 48.91791016 109.62930664 48.48925781 108.76220703 C35.70779176 83.05230326 19.18481031 59.87890297 -0.1171875 38.66015625 C-3.21162921 35.25400338 -6.24046629 31.79367705 -9.25 28.3125 C-9.74757813 27.74402344 -10.24515625 27.17554687 -10.7578125 26.58984375 C-14.52197895 22.21265591 -15.56104893 19.19685162 -15.46484375 13.37109375 C-14.98807026 8.80273683 -13.02437114 6.01132274 -9.6875 3 C-6.19236964 0.58029437 -4.22980736 0.10979008 0 0 Z " fill="#000000" transform="translate(302.25,-0.3125)"/>
<path d="M0 0 C11.87480745 6.43218737 21.03842111 20.70483482 29 31.328125 C29.43054688 31.90175781 29.86109375 32.47539063 30.3046875 33.06640625 C36.81165509 41.80151729 42.66114343 50.83513987 48 60.328125 C48.4345752 61.1001123 48.86915039 61.87209961 49.31689453 62.66748047 C76.97125511 112.34709022 87.8247368 170.96203615 80 227.328125 C79.87641113 228.2248291 79.75282227 229.1215332 79.62548828 230.04541016 C72.08419174 282.50541118 48.85321772 330.95158895 13.12890625 369.96875 C11.1265173 372.18791133 9.22154093 374.46638449 7.3125 376.765625 C3.85714262 380.67065217 0.93906791 382.94811458 -4.38671875 383.63671875 C-10.09565941 383.91832569 -13.61893849 383.29194256 -18 379.328125 C-21.20299222 375.78797571 -22.28693393 373.07097624 -22.5 368.390625 C-22.04473632 359.4058624 -16.90325362 355.12959438 -10.77734375 349.18359375 C-5.69344371 343.95668667 -1.37245614 338.15115901 3 332.328125 C3.62624268 331.50900635 3.62624268 331.50900635 4.26513672 330.67333984 C41.37068241 281.99898856 55.75443974 219.15314324 47.96875 158.9296875 C41.16428505 110.63766869 19.82060384 66.74961102 -13.38671875 31.1875 C-19.21057928 24.81520417 -22.39390173 20.72929065 -22.27734375 11.83203125 C-21.72087408 6.80812898 -18.97908624 4.21396493 -15.375 0.953125 C-10.24332999 -1.51767908 -5.44514765 -1.82922929 0 0 Z " fill="#000000" transform="translate(245,64.671875)"/>
<path d="M0 0 C28.54034921 19.22105151 45.39310241 60.39940915 52.0625 92.796875 C60.56245198 136.52440575 52.70816582 184.12127437 28.13671875 221.65625 C7.82520246 251.47493251 7.82520246 251.47493251 -2.9375 255.0625 C-8.55625724 255.4309431 -12.09461379 255.25440228 -16.9375 252.0625 C-20.78461726 248.32224711 -22.57204426 244.37122543 -22.9375 239.0625 C-22.38767708 232.04571227 -18.05998075 227.6864907 -13.40600586 222.84765625 C12.30809335 195.98781702 24.00540154 158.31936202 23.30859375 121.68359375 C22.12576432 87.40507924 8.41184234 54.16831707 -15.3125 29.375 C-19.3763759 24.96930276 -22.35500414 21.15630285 -22.9375 15.0625 C-22.6290475 9.06970853 -20.1546475 5.1815743 -15.9375 1.0625 C-10.9592876 -1.89751818 -5.37076228 -1.71407307 0 0 Z " fill="#000000" transform="translate(180.9375,128.9375)"/>
<path d="M0 0 C0.72960937 0.05542969 1.45921875 0.11085937 2.2109375 0.16796875 C11.36963236 2.61325136 17.17805285 12.03108195 21.79296875 19.77148438 C33.07731456 39.98432135 36.99009904 62.43859804 31.73046875 85.15625 C27.20405539 100.12700232 19.55608368 115.71082647 7.25 125.75 C1.94696043 127.8964684 -2.60838968 128.31303959 -8.125 126.75 C-12.73195296 124.00354727 -15.63977648 121.01817055 -17.375 115.8125 C-17.9689523 109.75418653 -16.66033693 105.78386027 -13.375 100.8125 C-12.27246746 99.56314109 -11.14604288 98.33457076 -10 97.125 C-0.66732208 86.92930025 2.11571768 73.74955522 1.87109375 60.3671875 C0.93020815 46.77661775 -4.86484871 36.2719389 -13.640625 26.1015625 C-17.11917362 21.51050508 -17.87587904 17.52252102 -17.375 11.8125 C-15.48241259 6.55531274 -12.81296456 3.98247468 -8.375 0.8125 C-5.47139067 -0.16916833 -3.0407263 -0.2827342 0 0 Z " fill="#000000" transform="translate(111.375,192.1875)"/>
</svg>
