<?xml version="1.0" standalone="no"?>
<!DOCTYPE svg PUBLIC "-//W3C//DTD SVG 20010904//EN"
 "http://www.w3.org/TR/2001/REC-SVG-20010904/DTD/svg10.dtd">
<svg version="1.0" xmlns="http://www.w3.org/2000/svg"
 width="3840.000000pt" height="2082.000000pt" viewBox="0 0 3840.000000 2082.000000"
 preserveAspectRatio="xMidYMid meet">

<g transform="translate(0.000000,2082.000000) scale(0.100000,-0.100000)"
fill="#000000" stroke="none">
<path d="M90 9560 l0 -3381 1388 4 c1472 4 1444 3 1757 52 576 91 1025 292
1364 610 397 375 655 947 770 1715 61 413 89 1054 61 1395 -85 997 -419 1827
-932 2310 -346 326 -778 532 -1298 619 -293 49 -281 49 -1737 53 l-1373 4 0
-3381z m2640 2476 c239 -52 418 -153 603 -342 318 -324 515 -844 582 -1534 34
-354 29 -1008 -11 -1350 -123 -1067 -587 -1590 -1539 -1737 -67 -10 -208 -17
-422 -20 l-323 -5 0 2507 0 2507 518 -5 c428 -4 530 -7 592 -21z"/>
<path d="M8075 11124 c-488 -37 -847 -150 -1111 -350 -149 -113 -321 -318
-404 -483 -83 -166 -118 -327 -127 -573 l-6 -178 587 0 586 0 0 54 c0 85 28
277 51 352 56 182 176 329 329 402 123 59 216 77 385 75 108 0 158 -5 218 -22
167 -44 289 -139 352 -273 60 -128 67 -183 72 -565 5 -321 4 -343 -12 -343
-10 0 -198 -18 -419 -40 -950 -95 -1277 -159 -1591 -310 -171 -82 -292 -167
-416 -290 -188 -186 -291 -377 -351 -653 -31 -144 -31 -485 0 -658 55 -304
163 -526 344 -709 162 -163 352 -263 609 -319 364 -78 889 -34 1279 108 129
47 319 145 412 211 l83 60 6 -63 c4 -34 7 -101 8 -149 l1 -88 635 0 636 0 -4
1813 c-3 1803 -3 1813 -24 1922 -67 344 -207 574 -465 766 -95 70 -164 110
-259 150 -105 43 -192 64 -459 111 l-235 41 -330 2 c-181 1 -352 1 -380 -1z
m932 -2986 c-4 -510 -7 -537 -63 -687 -65 -174 -205 -313 -384 -384 -122 -48
-211 -62 -380 -61 -140 0 -163 3 -237 27 -199 66 -332 222 -380 447 -26 127
-24 377 5 483 29 106 83 204 154 282 175 191 424 287 853 330 256 25 337 32
388 34 l49 1 -5 -472z"/>
<path d="M18215 11124 c-483 -37 -845 -150 -1103 -344 -105 -79 -256 -238
-324 -341 -150 -226 -203 -408 -215 -731 l-6 -168 585 0 585 0 7 110 c22 362
144 587 379 699 121 58 214 76 382 75 226 -3 364 -51 482 -170 134 -133 163
-268 163 -751 0 -255 -2 -283 -16 -283 -9 0 -197 -18 -418 -40 -951 -95 -1279
-159 -1591 -310 -579 -280 -849 -776 -786 -1440 71 -743 462 -1147 1181 -1221
300 -30 744 26 1045 131 173 61 394 177 490 258 l30 25 7 -39 c4 -21 7 -90 7
-151 l1 -113 635 0 635 0 0 1714 c0 1096 -4 1760 -10 1842 -26 318 -106 543
-266 742 -146 183 -392 342 -621 402 -43 11 -184 39 -313 62 l-235 41 -330 2
c-181 1 -352 1 -380 -1z m935 -2926 c0 -227 -5 -453 -10 -503 -42 -368 -237
-592 -585 -671 -112 -26 -354 -26 -445 0 -158 43 -279 144 -349 288 -58 121
-74 202 -75 398 -1 192 12 256 77 390 33 69 58 101 127 170 47 47 114 102 150
123 128 74 319 134 514 162 121 18 473 52 549 54 l47 1 0 -412z"/>
<path d="M31040 11123 c-465 -44 -820 -158 -1122 -360 -544 -363 -827 -917
-888 -1738 -13 -179 -13 -673 0 -841 35 -443 138 -813 305 -1089 73 -120 161
-229 277 -341 215 -207 462 -337 852 -449 284 -81 359 -90 771 -90 296 0 380
3 475 18 398 62 716 191 986 402 428 334 650 775 740 1470 21 162 31 898 15
1103 -31 380 -98 655 -227 918 -81 167 -160 278 -303 427 -313 324 -693 504
-1187 562 -117 14 -581 19 -694 8z m485 -737 c103 -33 168 -71 245 -143 119
-109 201 -262 253 -468 62 -242 99 -876 78 -1330 -36 -777 -120 -1102 -341
-1324 -115 -116 -234 -176 -400 -202 -91 -14 -261 -6 -345 16 -87 24 -191 77
-260 132 -166 135 -282 372 -329 673 -73 471 -66 1398 15 1858 79 454 300 729
644 806 51 11 110 15 215 12 124 -3 157 -7 225 -30z"/>
<path d="M13825 11099 c-294 -17 -564 -104 -791 -255 -84 -57 -217 -163 -344
-277 l-95 -85 -3 264 -2 264 -665 0 -665 0 0 -2345 0 -2345 665 0 665 0 0
1615 c0 1057 4 1649 10 1713 23 213 72 325 195 447 65 66 98 89 175 127 204
100 438 121 643 58 132 -41 248 -143 312 -274 44 -89 60 -155 82 -326 15 -121
17 -307 20 -1747 l4 -1613 660 0 659 0 0 1743 c0 1067 -4 1787 -10 1857 -21
240 -71 429 -155 588 -59 111 -108 174 -210 270 -253 238 -651 349 -1150 321z"/>
<path d="M23967 11100 c-287 -30 -580 -127 -828 -274 -96 -57 -249 -170 -364
-271 l-90 -78 -3 266 -2 267 -665 0 -665 0 0 -2340 0 -2340 666 0 665 0 -1
1668 c-2 1804 -4 1726 51 1889 54 163 208 316 369 367 140 45 244 60 395 60
113 -1 152 -5 202 -21 123 -41 227 -130 291 -251 40 -74 77 -214 91 -345 7
-65 11 -634 11 -1732 l0 -1635 660 0 660 0 0 1623 c0 1623 2 1729 36 1862 44
178 157 316 334 409 161 85 477 120 633 72 79 -25 165 -76 222 -133 62 -62
126 -179 148 -273 39 -158 40 -206 44 -1902 l4 -1658 675 0 675 0 -4 1798 c-3
1324 -7 1819 -16 1881 -37 262 -92 428 -196 587 -163 251 -447 418 -830 490
-134 25 -447 26 -582 1 -107 -20 -255 -65 -350 -108 -167 -75 -395 -233 -592
-411 -57 -51 -125 -112 -151 -135 l-48 -43 -40 85 c-158 328 -451 535 -862
606 -133 23 -408 33 -543 19z"/>
<path d="M36818 11099 c-234 -13 -443 -66 -631 -160 -165 -82 -285 -170 -500
-364 l-107 -97 0 266 0 266 -665 0 -665 0 0 -2345 0 -2345 665 0 664 0 4 1688
c3 1579 4 1692 21 1761 66 276 235 442 523 517 123 32 308 37 417 10 227 -55
376 -217 426 -466 36 -177 40 -378 40 -1968 l0 -1542 663 2 662 3 0 1745 c0
1840 -1 1868 -46 2092 -131 654 -647 983 -1471 937z"/>
<path d="M23587 3955 c-546 -75 -1040 -386 -1349 -850 -78 -118 -187 -342
-232 -480 -205 -620 -101 -1289 283 -1825 77 -108 210 -251 315 -339 351 -296
775 -451 1232 -451 251 0 472 41 694 129 l101 39 52 -23 c88 -38 266 -92 387
-117 101 -20 143 -23 350 -23 216 1 245 3 360 27 373 80 685 242 948 493 735
700 830 1847 221 2661 -323 432 -798 703 -1339 765 -128 14 -378 7 -505 -16
-122 -21 -286 -67 -391 -110 l-87 -35 -89 35 c-302 120 -639 162 -951 120z
m1233 -186 c334 -41 640 -171 895 -379 102 -83 250 -242 327 -350 136 -192
251 -458 299 -696 31 -153 38 -454 15 -614 -99 -676 -558 -1235 -1186 -1444
-210 -70 -285 -80 -565 -80 -223 0 -261 2 -355 22 -218 48 -436 138 -607 252
-410 274 -691 704 -778 1190 -23 129 -31 389 -16 520 56 482 290 910 661 1209
252 203 548 329 870 370 95 12 343 13 440 0z"/>
<path d="M24435 2789 c-277 -68 -493 -281 -581 -574 -23 -77 -27 -109 -27
-220 -1 -141 13 -213 63 -336 90 -216 279 -388 503 -458 378 -116 782 63 953
424 66 139 78 197 79 360 0 148 -11 207 -59 327 -74 182 -228 344 -409 429
-151 70 -354 89 -522 48z"/>
<path d="M20281 3395 c-200 -45 -339 -179 -396 -381 -12 -42 -19 -115 -22
-256 l-5 -198 -119 0 -119 0 0 -160 0 -160 120 0 120 0 0 -745 0 -745 205 0
205 0 0 745 0 745 200 0 200 0 0 160 0 160 -201 0 -201 0 4 183 c3 164 6 186
25 223 27 50 70 88 119 104 37 12 185 9 247 -6 l27 -6 0 159 0 160 -37 12
c-58 20 -295 23 -372 6z"/>
<path d="M11490 2070 l0 -1320 205 0 205 0 0 136 0 136 45 -61 c79 -107 212
-194 353 -228 98 -24 275 -21 375 6 248 66 432 247 523 513 90 265 79 633 -27
882 -95 222 -285 386 -514 441 -90 22 -259 22 -340 0 -156 -42 -298 -136 -385
-256 l-30 -42 0 556 0 557 -205 0 -205 0 0 -1320z m954 190 c134 -22 250 -105
314 -227 114 -216 105 -611 -18 -803 -42 -66 -90 -106 -170 -144 -63 -30 -70
-31 -200 -31 -117 0 -142 3 -193 23 -119 48 -216 157 -257 289 -61 198 -46
494 33 650 94 183 283 277 491 243z"/>
<path d="M37075 3324 c-335 -62 -625 -240 -824 -505 -113 -149 -206 -366 -247
-574 -25 -124 -25 -404 -1 -530 85 -436 321 -761 685 -940 330 -162 737 -185
1122 -63 174 55 374 163 535 290 l54 43 0 583 1 582 -565 0 -565 0 0 -275 0
-275 295 0 295 0 -2 -177 -3 -177 -92 -47 c-128 -65 -231 -91 -379 -97 -150
-5 -256 14 -369 67 -251 119 -403 348 -437 659 -48 436 218 842 599 913 76 15
290 5 368 -16 119 -33 234 -95 354 -192 39 -32 57 -41 66 -33 16 14 339 408
343 420 6 16 -190 158 -287 208 -213 111 -351 142 -651 148 -163 3 -234 0
-295 -12z"/>
<path d="M28300 1990 l0 -1320 265 0 265 0 2 852 3 851 360 -551 c198 -304
363 -552 366 -552 3 0 165 249 360 552 l354 553 3 -853 2 -852 270 0 270 0 0
1320 0 1320 -291 -2 -292 -3 -331 -547 c-182 -301 -333 -547 -336 -548 -3 0
-155 248 -339 550 l-333 550 -299 0 -299 0 0 -1320z"/>
<path d="M31250 2511 c0 -817 4 -936 40 -1087 54 -229 133 -377 276 -515 189
-182 441 -269 778 -269 591 0 955 275 1077 815 23 99 23 108 26 978 l4 877
-265 0 -265 0 -3 -827 c-4 -812 -4 -830 -25 -904 -76 -269 -259 -409 -538
-409 -227 0 -400 99 -488 280 -75 153 -71 100 -75 1028 l-3 832 -269 0 -270 0
0 -799z"/>
<path d="M33880 1990 l0 -1320 270 0 270 0 0 495 0 495 565 0 565 0 0 275 0
275 -565 0 -565 0 0 275 0 275 725 0 725 0 0 275 0 275 -995 0 -995 0 0 -1320z"/>
<path d="M807 3213 c-5 -8 -710 -2166 -772 -2361 l-33 -102 212 0 211 0 69
228 c38 125 80 262 93 305 l24 77 462 0 462 0 95 -305 95 -305 233 0 c183 0
233 3 229 13 -2 6 -181 562 -398 1235 l-393 1222 -292 0 c-161 0 -295 -3 -297
-7z m447 -952 l173 -561 -354 0 c-333 0 -354 1 -349 18 50 161 268 864 302
970 25 79 48 142 51 139 2 -3 82 -258 177 -566z"/>
<path d="M4190 2591 c-171 -24 -335 -124 -420 -257 l-30 -48 0 137 0 137 -205
0 -205 0 0 -905 0 -905 205 0 205 0 0 578 c0 625 1 630 56 732 71 131 234 206
393 181 111 -18 179 -73 224 -183 22 -52 22 -62 25 -680 l3 -628 204 0 205 0
0 570 c0 600 2 635 47 723 71 143 237 225 400 198 135 -22 212 -97 242 -239 7
-36 11 -247 11 -652 l0 -600 205 0 205 0 0 613 c0 663 -5 740 -54 870 -68 182
-204 304 -386 348 -81 19 -240 14 -333 -10 -150 -39 -288 -131 -383 -255 l-30
-39 -30 58 c-59 118 -186 215 -319 243 -73 16 -172 21 -235 13z"/>
<path d="M7085 2590 c-111 -12 -192 -37 -302 -91 -219 -108 -370 -303 -440
-568 -23 -84 -26 -117 -27 -271 -1 -195 13 -286 64 -414 80 -203 228 -362 416
-447 260 -118 619 -113 874 13 164 82 293 246 334 425 l14 63 -197 0 -197 0
-17 -54 c-38 -120 -148 -197 -308 -215 -326 -37 -528 130 -565 467 l-7 62 648
0 648 0 -6 168 c-4 133 -10 186 -30 263 -97 371 -354 579 -747 602 -47 3 -116
1 -155 -3z m217 -311 c179 -38 280 -165 312 -396 l6 -43 -440 0 c-499 0 -452
-10 -425 90 70 265 287 403 547 349z"/>
<path d="M9250 2590 c-170 -23 -312 -104 -405 -232 l-45 -60 0 131 0 131 -205
0 -205 0 0 -905 0 -905 205 0 204 0 3 603 3 602 23 57 c27 68 95 146 157 183
71 41 175 59 260 45 120 -19 187 -76 231 -195 18 -47 19 -94 22 -672 l3 -623
204 0 205 0 0 578 c0 646 1 653 68 752 76 111 184 165 330 164 71 -1 91 -5
139 -30 67 -34 115 -91 140 -167 16 -47 18 -113 21 -674 l3 -623 204 0 205 0
0 598 c0 345 -4 633 -10 682 -22 181 -78 311 -179 411 -107 107 -229 152 -406
152 -184 0 -361 -71 -485 -193 -37 -36 -76 -78 -87 -94 l-21 -30 -27 54 c-31
61 -112 151 -167 186 -92 58 -265 91 -388 74z"/>
<path d="M14270 2589 c-384 -44 -669 -320 -745 -722 -22 -114 -20 -348 4 -462
72 -351 313 -598 656 -671 96 -20 328 -23 425 -5 244 45 433 167 522 337 34
65 78 189 78 220 0 12 -36 14 -200 14 -194 0 -200 -1 -200 -20 0 -36 -44 -114
-88 -157 -77 -75 -228 -111 -387 -92 -232 28 -375 191 -404 458 l-7 71 649 0
650 0 -6 148 c-14 319 -94 525 -269 687 -118 109 -268 172 -463 195 -100 11
-109 11 -215 -1z m292 -328 c74 -29 146 -94 187 -170 31 -59 60 -167 61 -223
l0 -28 -440 0 -440 0 6 28 c50 227 155 359 324 407 78 21 227 14 302 -14z"/>
<path d="M18401 2589 c-348 -42 -616 -251 -730 -565 -82 -226 -82 -523 -1
-746 56 -153 166 -302 290 -393 173 -127 428 -191 655 -166 400 45 681 287
777 667 19 76 23 116 23 269 0 217 -18 305 -94 460 -143 291 -410 460 -761
479 -47 2 -118 0 -159 -5z m199 -329 c141 -22 265 -114 327 -241 58 -117 68
-173 68 -374 -1 -168 -3 -185 -28 -261 -75 -224 -232 -344 -452 -344 -246 0
-418 153 -471 419 -25 129 -16 358 20 468 80 247 283 372 536 333z"/>
<path d="M16386 2564 c-140 -34 -274 -137 -356 -272 l-40 -67 0 168 0 167
-205 0 -205 0 0 -905 0 -905 205 0 205 0 0 504 c0 560 4 610 61 716 71 133
208 205 418 219 l96 6 3 193 2 192 -62 -1 c-35 0 -89 -7 -122 -15z"/>
</g>
</svg>
