<?xml version="1.0" standalone="no"?>
<!DOCTYPE svg PUBLIC "-//W3C//DTD SVG 20010904//EN"
 "http://www.w3.org/TR/2001/REC-SVG-20010904/DTD/svg10.dtd">
<svg version="1.0" xmlns="http://www.w3.org/2000/svg"
 width="3840.000000pt" height="1048.000000pt" viewBox="0 0 3840.000000 1048.000000"
 preserveAspectRatio="xMidYMid meet">

<g transform="translate(0.000000,1048.000000) scale(0.100000,-0.100000)"
fill="#000000" stroke="none">
<path d="M4985 8514 c-16 -2 -77 -9 -135 -15 -576 -61 -1158 -301 -1649 -681
-130 -102 -420 -389 -523 -518 -403 -508 -634 -1073 -709 -1730 -15 -135 -15
-525 0 -660 75 -657 306 -1222 709 -1730 103 -129 393 -416 523 -518 481 -372
1002 -592 1610 -679 176 -25 671 -25 848 0 361 51 678 145 987 292 933 444
1606 1306 1808 2315 48 239 60 366 60 650 0 284 -12 411 -60 650 -202 1009
-875 1871 -1808 2315 -306 146 -627 241 -977 290 -108 16 -608 29 -684 19z
m639 -298 c353 -49 658 -145 969 -304 819 -416 1406 -1189 1586 -2087 74 -369
74 -801 0 -1170 -158 -788 -627 -1479 -1306 -1925 -383 -252 -824 -413 -1293
-472 -156 -19 -573 -16 -730 6 -1203 167 -2175 1012 -2505 2176 -35 125 -73
319 -90 466 -20 168 -20 500 0 668 150 1285 1090 2322 2355 2600 98 21 250 44
405 60 87 9 505 -4 609 -18z"/>
<path d="M5505 8016 c-16 -8 -43 -27 -58 -43 -39 -42 -101 -191 -150 -360 -39
-134 -43 -143 -71 -153 -58 -20 -78 -13 -120 45 -62 87 -190 175 -255 175 -38
0 -46 -23 -66 -204 -8 -77 -16 -140 -18 -141 -1 0 -74 -29 -162 -64 -209 -82
-496 -223 -612 -300 -169 -113 -252 -217 -311 -391 l-27 -78 -105 -69 c-286
-189 -516 -437 -656 -708 l-56 -110 118 116 c355 345 584 530 789 636 l72 37
28 85 c97 301 232 411 805 654 289 123 479 186 563 187 22 0 22 -27 -2 -91
l-20 -50 32 6 c50 11 96 35 117 63 11 14 32 64 46 111 105 354 162 461 247
461 25 0 43 -13 97 -67 163 -167 310 -462 370 -741 23 -110 43 -266 38 -312
l-3 -35 -62 0 c-35 0 -63 -3 -63 -6 0 -19 96 -132 146 -174 136 -111 307 -151
376 -88 40 36 51 72 45 150 l-5 73 121 -93 c310 -235 430 -406 488 -692 l12
-60 13 49 c42 162 44 434 5 586 -42 158 -120 297 -231 411 l-59 60 37 -7 c103
-18 228 -56 292 -88 92 -46 84 -32 -62 109 -181 177 -362 295 -620 404 l-123
52 -90 101 c-144 161 -553 503 -652 546 -59 25 -151 29 -198 8z"/>
<path d="M5637 7330 c-36 -43 -69 -135 -74 -210 l-4 -65 102 -75 c57 -41 142
-115 191 -163 l88 -89 0 52 c0 173 -96 436 -198 543 -44 45 -72 47 -105 7z"/>
<path d="M4735 7080 c-11 -35 -90 -94 -206 -154 -142 -74 -231 -136 -264 -184
-36 -52 -31 -57 20 -22 64 44 122 67 285 111 80 22 174 53 209 70 70 32 151
93 151 113 0 34 -98 86 -161 86 -19 0 -30 -6 -34 -20z"/>
<path d="M5060 7076 c0 -3 14 -13 31 -21 43 -23 69 -52 69 -78 0 -26 -50 -78
-125 -128 -114 -76 -198 -176 -215 -254 -5 -27 -11 -31 -65 -42 -45 -9 -85 -9
-158 -2 -117 13 -148 8 -206 -31 -77 -53 -152 -33 -155 40 -1 35 -4 36 -32 12
-45 -36 -58 -106 -29 -161 17 -34 70 -81 91 -81 32 0 25 -31 -19 -79 -53 -60
-77 -107 -77 -154 0 -37 38 -102 59 -102 8 0 36 36 63 80 27 44 61 92 75 106
23 25 30 27 84 22 77 -7 141 23 235 112 38 36 72 64 76 62 13 -4 -57 -161
-102 -227 -97 -143 -243 -242 -380 -258 l-65 -8 35 -22 c57 -36 129 -54 235
-59 172 -8 236 25 276 145 41 126 97 222 231 396 37 48 71 99 74 113 9 35 -15
55 -75 61 -45 4 -49 6 -41 23 15 27 118 97 265 180 155 87 195 122 195 173 0
68 -91 138 -215 164 -75 17 -135 24 -135 18z m-480 -686 c-43 -44 -83 -80 -88
-80 -13 0 -42 40 -42 58 0 10 4 10 16 -2 21 -22 31 -20 50 9 11 17 15 37 11
60 l-6 35 69 0 68 0 -78 -80z"/>
<path d="M5695 6584 c54 -107 78 -212 77 -339 0 -176 -31 -296 -164 -630 -95
-239 -118 -323 -118 -425 0 -139 52 -260 210 -485 123 -176 165 -262 183 -374
l13 -85 31 50 c116 180 149 357 103 540 -12 47 -53 147 -101 244 -122 248
-136 300 -104 378 l16 37 24 -31 c47 -60 243 -194 284 -194 6 0 -7 33 -29 73
-71 133 -75 156 -75 482 l0 290 -28 80 c-47 134 -117 237 -247 363 -104 102
-115 106 -75 26z"/>
<path d="M5250 6529 c-42 -13 -93 -59 -125 -114 -38 -64 -55 -149 -65 -335 -6
-96 -15 -198 -21 -227 l-10 -52 -42 20 c-59 26 -140 25 -202 -5 -61 -29 -99
-69 -153 -163 -73 -125 -150 -165 -276 -142 -118 21 -127 28 -216 199 -72 137
-95 154 -200 147 -50 -3 -93 -12 -130 -29 l-55 -25 68 -6 c77 -7 132 -30 149
-61 7 -11 18 -80 24 -152 8 -94 17 -141 32 -171 29 -55 104 -130 155 -153 54
-25 150 -26 203 -3 25 11 67 17 120 17 73 1 87 -2 155 -36 83 -41 181 -125
219 -187 14 -22 28 -41 32 -41 7 0 28 90 28 124 0 87 -71 193 -172 257 -29 18
-55 34 -57 35 -10 7 46 67 83 89 100 58 189 7 271 -154 80 -160 119 -368 113
-604 l-4 -161 48 100 c26 54 60 144 75 199 25 91 28 115 28 270 0 146 -3 182
-22 252 -27 96 -62 179 -105 245 l-30 48 22 102 c76 355 208 581 369 629 l43
13 -24 18 c-62 48 -250 80 -328 57z"/>
<path d="M7572 6369 c32 -127 70 -339 90 -499 8 -66 13 -216 12 -400 0 -253
-3 -315 -22 -439 -35 -225 -103 -469 -162 -580 l-19 -36 -1 56 c0 68 -20 175
-65 361 -63 257 -78 372 -72 563 3 94 9 185 13 204 4 23 3 32 -4 27 -21 -13
-91 -128 -112 -183 -48 -130 -52 -163 -60 -658 -6 -352 -12 -495 -24 -570 -53
-332 -173 -579 -383 -792 -69 -70 -222 -197 -229 -190 -2 2 9 33 25 69 92 202
154 558 155 895 1 178 3 200 16 193 22 -12 105 -102 120 -130 l13 -25 14 40
c21 61 51 247 58 370 13 201 -23 449 -94 662 -37 109 -37 113 -17 113 24 0
122 -45 186 -85 l43 -27 -6 118 c-6 144 -23 210 -82 330 -55 112 -138 205
-273 305 -53 39 -121 95 -150 123 l-53 51 6 -40 c10 -56 52 -146 122 -256 71
-110 126 -218 142 -273 6 -22 9 -41 8 -43 -2 -1 -43 11 -93 28 -86 30 -264 53
-264 34 0 -4 20 -33 44 -65 133 -178 254 -511 274 -760 8 -98 5 -240 -5 -240
-2 0 -23 13 -46 29 -82 56 -234 121 -283 121 -8 0 -2 -25 18 -71 121 -289 130
-737 20 -956 l-29 -56 -7 59 c-3 32 -13 81 -21 107 -15 50 -54 127 -64 127 -4
0 -17 -29 -29 -65 -47 -128 -152 -260 -274 -341 -64 -43 -186 -100 -194 -91
-2 2 4 15 15 28 10 13 30 48 45 76 95 188 69 404 -65 534 -129 126 -323 152
-496 67 -76 -37 -187 -137 -247 -222 -82 -114 -163 -299 -211 -477 -17 -65
-19 -67 -54 -73 -101 -16 -238 0 -352 43 -104 39 -188 137 -189 218 0 45 34
130 76 186 34 46 37 48 73 42 134 -22 420 114 585 278 132 132 169 227 142
357 -51 240 -240 406 -521 455 -117 20 -186 19 -279 -5 -106 -27 -211 -84
-341 -186 -187 -146 -248 -191 -308 -227 l-58 -35 -57 13 c-172 40 -235 90
-309 243 -25 52 -48 112 -50 133 -8 54 19 126 90 249 61 103 96 186 97 225 0
17 -7 20 -43 21 -25 0 -71 13 -117 34 -121 55 -199 44 -329 -44 l-54 -37 6 58
c3 32 8 67 12 78 13 39 -65 -58 -95 -118 -40 -81 -39 -119 6 -187 46 -71 101
-128 190 -196 57 -44 75 -64 89 -102 28 -74 104 -221 146 -283 87 -128 209
-213 342 -239 64 -12 68 -15 154 -99 88 -87 186 -148 267 -166 28 -6 29 -6 23
32 -15 93 -29 280 -25 329 4 48 9 57 49 94 65 59 170 127 241 158 54 22 78 26
163 26 91 1 105 -2 155 -27 30 -16 68 -40 83 -55 27 -25 62 -81 55 -86 -2 -2
-24 -13 -50 -25 -82 -39 -132 -119 -188 -301 -37 -119 -77 -205 -111 -237 -67
-61 -159 -58 -301 12 l-67 33 -6 -42 c-12 -81 30 -252 80 -328 14 -21 25 -46
25 -56 0 -34 38 -131 69 -175 102 -149 249 -207 611 -242 91 -9 189 -22 218
-29 l52 -13 0 70 c0 164 45 358 116 500 96 190 221 290 362 289 220 -1 295
-237 160 -506 -41 -82 -89 -147 -172 -233 -38 -40 -66 -76 -62 -80 13 -14 198
-6 291 11 177 33 380 103 455 156 17 12 34 20 37 16 3 -3 1 -38 -6 -77 -24
-148 -132 -387 -266 -590 -41 -62 -74 -114 -72 -115 1 -1 67 19 147 46 408
135 739 338 1041 639 439 439 712 1013 779 1638 19 168 8 535 -19 688 -45 251
-118 483 -223 705 -69 145 -79 149 -46 19z m-4487 -953 c26 -18 14 -39 -37
-67 -36 -21 -43 -30 -46 -59 -2 -29 5 -45 43 -90 50 -60 57 -96 25 -125 -18
-16 -22 -16 -43 -2 -43 28 -172 163 -192 201 l-20 37 35 30 c50 42 148 89 185
89 17 0 40 -6 50 -14z m678 -888 c-2 -35 2 -101 10 -148 8 -47 14 -86 13 -87
-7 -8 -111 97 -132 133 l-27 45 29 31 c24 26 102 88 109 88 2 0 1 -28 -2 -62z
m1037 -51 c44 -15 50 -46 19 -117 -30 -69 -102 -131 -215 -186 -51 -24 -95
-44 -97 -44 -3 0 1 12 8 28 8 15 21 60 30 100 9 39 21 72 26 72 5 0 26 -7 46
-15 44 -19 48 -19 67 1 21 21 20 63 -3 124 l-19 50 51 -1 c29 0 68 -5 87 -12z
m-657 -522 l67 -22 -30 -41 c-16 -23 -43 -48 -60 -57 l-30 -16 -29 46 c-29 46
-47 107 -36 125 4 7 14 6 28 -2 12 -6 52 -21 90 -33z"/>
<path d="M3665 5690 c-95 -21 -181 -115 -225 -246 l-19 -59 22 30 c45 60 143
158 183 181 23 13 63 31 90 40 27 9 56 18 64 21 39 12 -68 43 -115 33z"/>
<path d="M3755 5501 c-117 -29 -264 -195 -342 -386 -49 -121 -40 -129 29 -24
73 112 201 243 278 284 47 25 66 30 132 30 43 0 78 2 78 3 0 18 -51 68 -84 83
-45 20 -47 20 -91 10z"/>
<path d="M3847 5254 c-96 -35 -210 -140 -283 -261 -32 -53 -74 -166 -74 -199
0 -7 33 19 73 60 107 109 255 196 333 196 41 0 93 -27 112 -60 l19 -31 31 35
c82 93 60 200 -52 252 -57 27 -103 29 -159 8z"/>
<path d="M21810 5486 l0 -2064 93 -31 c476 -157 1201 -218 1707 -145 730 105
1177 477 1314 1095 40 180 49 297 43 543 -5 237 -18 322 -72 481 -157 466
-545 774 -1100 871 -138 24 -344 34 -475 23 -122 -10 -326 -48 -397 -73 l-43
-15 -2 687 -3 687 -532 3 -533 2 0 -2064z m1658 42 c206 -74 333 -228 388
-473 24 -107 25 -419 1 -550 -34 -190 -100 -330 -206 -436 -144 -144 -366
-204 -616 -166 -55 9 -113 20 -128 26 l-27 11 0 778 0 779 44 17 c94 36 167
46 321 42 131 -2 159 -6 223 -28z"/>
<path d="M32000 5415 l0 -2135 535 0 535 0 0 735 c0 581 3 735 13 735 6 0 253
-331 547 -735 l535 -734 603 -1 c331 0 602 3 602 8 0 4 -266 355 -590 781
-372 487 -587 778 -582 785 5 6 247 311 539 677 291 366 533 671 537 677 5 9
-139 12 -598 12 l-604 0 -489 -629 c-268 -347 -494 -630 -500 -630 -10 -1 -13
264 -13 1294 l0 1295 -535 0 -535 0 0 -2135z"/>
<path d="M10055 7188 c-7 -18 -555 -3857 -555 -3885 l0 -23 509 0 509 0 5 28
c2 15 76 620 163 1344 87 724 160 1315 162 1313 2 -2 217 -606 477 -1342 l473
-1338 335 -3 c313 -2 337 -1 345 15 5 10 220 615 478 1345 257 730 469 1326
471 1325 1 -2 74 -601 163 -1332 88 -732 162 -1336 165 -1342 3 -10 116 -13
515 -13 280 0 510 1 510 3 0 6 -550 3856 -555 3885 l-6 32 -628 0 -628 0 -419
-1210 c-230 -666 -420 -1207 -421 -1203 -2 4 -185 548 -407 1208 l-404 1200
-626 3 c-496 2 -628 0 -631 -10z"/>
<path d="M26425 6304 c-257 -21 -506 -61 -751 -124 -232 -59 -356 -99 -351
-113 59 -141 240 -564 247 -577 10 -18 14 -17 98 11 295 100 747 171 987 154
191 -13 305 -49 384 -121 69 -62 84 -102 89 -230 l4 -111 -143 -7 c-568 -27
-1075 -129 -1364 -274 -362 -181 -528 -464 -485 -828 55 -470 428 -748 1124
-839 597 -78 1378 -6 1819 167 l77 31 0 941 c0 581 -4 973 -10 1023 -16 130
-46 230 -99 338 -149 301 -429 469 -901 541 -101 15 -601 27 -725 18z m703
-2066 l-3 -373 -55 -12 c-30 -7 -121 -18 -202 -24 -296 -25 -531 28 -657 146
-84 78 -115 185 -87 295 44 172 200 260 541 305 116 15 305 31 413 34 l52 1
-2 -372z"/>
<path d="M16235 6279 c-331 -25 -734 -103 -1107 -215 -10 -3 -18 -10 -18 -16
0 -5 48 -118 106 -251 59 -133 115 -261 125 -284 l18 -42 73 25 c173 58 446
119 653 145 148 18 423 16 514 -4 150 -33 252 -101 294 -196 16 -36 21 -68 21
-146 l1 -100 -135 -7 c-660 -36 -1160 -146 -1460 -324 -108 -63 -237 -186
-294 -278 -25 -39 -57 -107 -73 -151 -26 -75 -27 -91 -28 -245 0 -143 3 -176
23 -245 81 -281 306 -487 659 -604 439 -146 1141 -167 1808 -56 160 27 373 79
468 115 l57 21 0 962 c0 1028 -1 1055 -50 1207 -138 423 -497 641 -1135 689
-158 12 -357 12 -520 0z m683 -2041 l-3 -372 -60 -13 c-33 -6 -123 -17 -200
-24 -307 -27 -565 35 -680 163 -52 58 -75 120 -75 203 0 273 270 389 968 413
l52 2 -2 -372z"/>
<path d="M29805 6283 c-322 -16 -699 -81 -1073 -184 -79 -21 -146 -39 -148
-39 -2 0 -4 -625 -4 -1390 l0 -1390 535 0 535 0 0 1120 0 1119 68 21 c313 97
651 40 756 -129 53 -85 51 -33 56 -1116 l5 -1010 548 -3 548 -2 -4 1082 c-3
1078 -3 1083 -25 1165 -122 458 -536 700 -1287 753 -129 9 -366 11 -510 3z"/>
<path d="M17900 6193 c0 -5 297 -666 661 -1469 l661 -1462 -262 -568 c-144
-313 -264 -575 -267 -581 -4 -10 111 -13 554 -13 l560 0 12 27 c105 230 1815
4043 1818 4056 5 16 -27 17 -575 17 l-580 0 -49 -142 c-27 -79 -184 -542 -348
-1031 -164 -488 -302 -884 -306 -880 -4 5 -167 467 -362 1028 l-355 1020 -581
3 c-320 1 -581 -1 -581 -5z"/>
</g>
</svg>
