<?xml version="1.0" standalone="no"?>
<!DOCTYPE svg PUBLIC "-//W3C//DTD SVG 20010904//EN"
 "http://www.w3.org/TR/2001/REC-SVG-20010904/DTD/svg10.dtd">
<svg version="1.0" xmlns="http://www.w3.org/2000/svg"
 width="3840.000000pt" height="950.000000pt" viewBox="0 0 3840.000000 950.000000"
 preserveAspectRatio="xMidYMid meet">

<g transform="translate(0.000000,950.000000) scale(0.100000,-0.100000)"
fill="#000000" stroke="none">
<path d="M2145 7583 c-820 -1053 -1518 -1954 -1553 -2002 -203 -277 -382 -618
-472 -898 -81 -253 -114 -472 -114 -768 0 -320 36 -552 129 -830 199 -598 592
-1097 1190 -1512 119 -82 2226 -1508 2286 -1546 l26 -17 1199 811 c659 446
1245 847 1301 891 475 372 809 825 989 1342 166 476 187 1025 60 1511 -86 326
-265 686 -502 1011 -70 97 -3008 3878 -3038 3911 -8 9 -383 -466 -1501 -1904z
m2360 -349 c473 -602 893 -1143 933 -1202 187 -275 257 -497 232 -740 -22
-212 -127 -413 -347 -666 -114 -130 -1674 -1830 -1684 -1834 -8 -3 -1628 1760
-1733 1886 -97 118 -165 220 -216 327 -63 129 -80 195 -87 331 -12 236 41 412
195 646 71 107 1827 2348 1840 2348 4 -1 394 -494 867 -1096z m1886 -2547 c59
-130 114 -301 146 -452 25 -120 27 -148 27 -355 0 -206 -2 -236 -27 -350 -89
-419 -305 -797 -640 -1116 -57 -55 -149 -134 -203 -175 -54 -42 -433 -299
-842 -573 l-743 -498 3 469 c5 523 4 519 78 668 22 44 59 105 82 136 24 31
390 433 813 895 424 461 812 888 863 948 148 176 263 354 327 509 l28 67 23
-40 c13 -23 42 -82 65 -133z m-5383 86 c55 -134 167 -308 308 -479 36 -43 424
-470 862 -947 809 -881 886 -971 932 -1093 49 -130 52 -165 57 -621 3 -238 3
-439 0 -447 -4 -11 -207 120 -753 486 -411 275 -782 526 -824 558 -292 222
-543 522 -690 824 -267 549 -262 1119 14 1699 26 53 50 97 54 97 5 0 22 -35
40 -77z"/>
<path d="M9130 4570 l0 -1640 320 0 320 0 0 600 0 600 359 0 c197 0 405 5 462
10 340 34 625 176 803 401 240 303 284 745 109 1094 -53 105 -113 183 -206
271 -174 162 -407 263 -680 293 -59 7 -363 11 -792 11 l-695 0 0 -1640z m1429
1126 c264 -69 406 -254 405 -526 -1 -224 -92 -383 -271 -472 -133 -67 -183
-73 -573 -73 l-345 0 -3 535 c-1 294 0 541 3 548 8 22 697 11 784 -12z"/>
<path d="M27850 4571 l0 -1641 738 0 c753 0 897 6 1051 39 385 84 652 340 725
693 21 102 21 297 0 391 -32 144 -128 310 -238 410 -87 80 -238 169 -333 197
-24 7 -43 16 -43 19 0 3 38 26 83 51 150 82 284 240 336 397 51 152 50 356 -3
512 -91 268 -337 467 -672 542 -97 22 -115 23 -871 26 l-773 4 0 -1640z m1414
1145 c142 -40 255 -133 296 -244 27 -71 37 -197 21 -274 -27 -126 -102 -228
-210 -282 -109 -56 -137 -59 -528 -64 l-363 -4 0 447 0 447 363 -4 c302 -4
372 -7 421 -22z m151 -1348 c222 -75 335 -232 335 -468 0 -245 -128 -409 -368
-471 -68 -17 -113 -19 -489 -19 l-413 0 0 496 0 495 428 -3 427 -3 80 -27z"/>
<path d="M36080 4570 l0 -1640 300 0 300 0 0 571 c0 361 4 569 10 567 5 -1
217 -248 470 -548 254 -300 471 -555 483 -568 l23 -22 367 2 368 3 -542 630
c-297 347 -548 638 -556 647 -14 16 21 56 427 500 244 266 466 507 494 536
l50 52 -364 0 -365 0 -424 -478 c-233 -262 -428 -478 -432 -480 -5 -2 -9 416
-9 932 l0 936 -300 0 -300 0 0 -1640z"/>
<path d="M23040 5620 l0 -320 -185 0 -185 0 0 -235 0 -235 185 0 185 0 0 -950
0 -950 305 0 305 0 0 950 0 950 240 0 240 0 0 235 0 235 -240 0 -240 0 0 320
0 320 -305 0 -305 0 0 -320z"/>
<path d="M12675 5360 c-97 -15 -234 -58 -323 -100 -336 -160 -550 -449 -639
-860 -25 -119 -25 -446 0 -575 104 -527 433 -858 935 -941 133 -22 386 -22
517 1 421 72 712 310 841 688 l23 67 -292 0 -292 -1 -35 -60 c-94 -165 -276
-259 -500 -259 -161 0 -312 52 -413 140 -52 46 -123 150 -155 227 -24 56 -62
204 -62 241 l0 22 884 0 885 0 7 46 c12 84 -3 381 -24 474 -109 468 -410 774
-862 875 -88 20 -402 29 -495 15z m389 -466 c198 -53 335 -198 396 -416 11
-40 20 -76 20 -80 0 -5 -268 -8 -595 -8 -327 0 -595 2 -595 4 0 23 60 185 88
239 70 136 205 237 362 272 79 18 238 13 324 -11z"/>
<path d="M20920 5360 c-462 -59 -780 -377 -892 -893 -19 -90 -22 -132 -22
-347 -1 -216 2 -257 22 -346 56 -259 152 -452 301 -608 85 -88 165 -145 283
-201 154 -73 240 -90 453 -89 167 0 187 2 270 28 196 60 357 177 467 340 l28
41 0 -177 0 -178 295 0 295 0 0 1185 0 1185 -295 0 -295 0 0 -171 0 -171 -44
58 c-125 169 -298 283 -497 329 -86 19 -276 27 -369 15z m445 -495 c289 -74
455 -347 455 -751 0 -307 -108 -557 -290 -674 -119 -76 -295 -107 -440 -76
-231 49 -386 210 -457 474 -24 87 -27 115 -27 277 0 154 3 193 22 270 36 144
91 247 181 336 117 116 219 157 396 158 60 1 125 -5 160 -14z"/>
<path d="M25160 5360 c-406 -53 -709 -309 -845 -715 -101 -301 -105 -723 -9
-1028 119 -376 377 -630 731 -719 75 -19 114 -23 268 -22 166 0 187 2 268 27
187 57 337 164 453 321 l44 58 0 -176 0 -176 295 0 295 0 0 1185 0 1185 -295
0 -295 0 -2 -171 -3 -171 -39 56 c-21 31 -75 90 -118 131 -93 88 -232 162
-363 195 -91 23 -284 33 -385 20z m444 -495 c138 -36 265 -132 339 -256 146
-248 155 -683 18 -946 -76 -145 -176 -233 -320 -281 -65 -22 -94 -26 -196 -25
-102 0 -131 4 -190 25 -127 44 -211 111 -286 226 -84 129 -128 301 -129 508
-1 400 163 672 450 748 74 20 241 20 314 1z"/>
<path d="M31508 5360 c-224 -27 -423 -122 -579 -279 -156 -157 -253 -349 -311
-615 -31 -140 -33 -518 -4 -671 48 -259 147 -462 305 -628 127 -133 282 -222
468 -269 75 -19 114 -23 268 -22 166 0 187 2 268 27 191 59 337 162 454 320
l43 59 0 -176 0 -176 295 0 295 0 0 1185 0 1185 -295 0 -295 0 -2 -171 -3
-171 -38 55 c-54 79 -172 187 -255 236 -169 98 -384 137 -614 111z m447 -495
c212 -55 363 -223 425 -475 30 -119 37 -333 16 -462 -47 -286 -181 -469 -401
-546 -59 -21 -89 -25 -190 -26 -106 0 -129 3 -199 27 -181 63 -296 187 -365
393 -40 120 -55 241 -48 399 15 371 174 616 448 689 73 20 239 20 314 1z"/>
<path d="M17131 5350 c-120 -25 -258 -90 -353 -165 -62 -48 -135 -134 -171
-200 l-22 -40 -3 178 -2 177 -295 0 -295 0 0 -1185 0 -1185 300 0 300 0 0 638
c1 640 6 778 36 901 66 271 265 428 517 408 237 -19 358 -155 386 -436 7 -62
11 -384 11 -807 l0 -704 300 0 300 0 0 658 c0 674 4 766 40 900 56 206 190
346 368 383 77 16 203 6 274 -21 78 -29 159 -104 198 -183 59 -121 60 -127 60
-969 l0 -768 306 0 305 0 -4 848 c-4 929 -4 921 -66 1092 -96 262 -295 426
-578 475 -112 20 -293 19 -391 -1 -219 -45 -419 -173 -550 -351 l-46 -63 -34
63 c-21 36 -70 97 -121 147 -99 98 -178 144 -316 186 -78 23 -112 27 -250 30
-88 2 -180 -1 -204 -6z"/>
<path d="M34615 5349 c-120 -24 -235 -71 -335 -139 -67 -46 -169 -152 -207
-217 l-28 -48 -3 178 -2 177 -295 0 -295 0 0 -1185 0 -1185 300 0 300 0 0 658
c0 713 4 784 51 927 76 230 226 349 454 362 157 9 287 -36 367 -127 51 -57 74
-103 101 -198 21 -75 21 -95 25 -849 l3 -773 300 0 300 0 -4 858 c-4 942 -1
904 -67 1084 -65 179 -184 315 -343 393 -139 68 -222 86 -412 91 -88 1 -182
-1 -210 -7z"/>
<path d="M15539 5304 c-223 -40 -415 -165 -531 -344 l-48 -75 0 208 0 207
-295 0 -295 0 0 -1185 0 -1185 299 0 299 0 5 588 c5 639 7 666 65 830 39 111
85 183 164 257 112 107 252 160 446 172 l102 6 0 269 0 268 -67 -1 c-38 0
-102 -7 -144 -15z"/>
</g>
</svg>
